<mxfile host="app.diagrams.net" agent="Mozilla/5.0 (Windows NT 10.0; Win64; x64) AppleWebKit/537.36 (KHTML, like Gecko) Chrome/134.0.0.0 Safari/537.36" version="26.1.1">
  <diagram id="C5RBs43oDa-KdzZeNtuy" name="Page-1">
    <mxGraphModel dx="969" dy="517" grid="1" gridSize="10" guides="1" tooltips="1" connect="1" arrows="1" fold="1" page="1" pageScale="1" pageWidth="827" pageHeight="1169" math="0" shadow="0">
      <root>
        <mxCell id="WIyWlLk6GJQsqaUBKTNV-0" />
        <mxCell id="WIyWlLk6GJQsqaUBKTNV-1" parent="WIyWlLk6GJQsqaUBKTNV-0" />
        <mxCell id="WIyWlLk6GJQsqaUBKTNV-2" value="" style="rounded=0;html=1;jettySize=auto;orthogonalLoop=1;fontSize=11;endArrow=block;endFill=0;endSize=8;strokeWidth=1;shadow=0;labelBackgroundColor=none;edgeStyle=orthogonalEdgeStyle;" parent="WIyWlLk6GJQsqaUBKTNV-1" source="WIyWlLk6GJQsqaUBKTNV-3" target="WIyWlLk6GJQsqaUBKTNV-6" edge="1">
          <mxGeometry relative="1" as="geometry" />
        </mxCell>
        <mxCell id="WIyWlLk6GJQsqaUBKTNV-3" value="&lt;div style=&quot;line-height: 19px;&quot;&gt;&lt;font face=&quot;Consolas, Courier New, monospace&quot;&gt;&lt;span style=&quot;font-size: 14px; white-space: pre;&quot;&gt;# Initialize all detectors&lt;br&gt;self.init_shape_detector()&lt;br&gt;self.init_color_detector()&lt;br&gt;self.init_canny_detector()&lt;br&gt;self.init_sobel_detector()&lt;/span&gt;&lt;/font&gt;&lt;/div&gt;" style="rounded=1;whiteSpace=wrap;html=1;fontSize=12;glass=0;strokeWidth=1;shadow=0;" parent="WIyWlLk6GJQsqaUBKTNV-1" vertex="1">
          <mxGeometry x="155" y="20" width="255" height="120" as="geometry" />
        </mxCell>
        <mxCell id="WIyWlLk6GJQsqaUBKTNV-4" value="Yes" style="rounded=0;html=1;jettySize=auto;orthogonalLoop=1;fontSize=11;endArrow=block;endFill=0;endSize=8;strokeWidth=1;shadow=0;labelBackgroundColor=none;edgeStyle=orthogonalEdgeStyle;entryX=0.5;entryY=0;entryDx=0;entryDy=0;" parent="WIyWlLk6GJQsqaUBKTNV-1" source="WIyWlLk6GJQsqaUBKTNV-6" target="q9l71AFZMNqnJ_aVeA2Z-1" edge="1">
          <mxGeometry y="20" relative="1" as="geometry">
            <mxPoint as="offset" />
            <mxPoint x="282.5" y="290" as="targetPoint" />
          </mxGeometry>
        </mxCell>
        <mxCell id="WIyWlLk6GJQsqaUBKTNV-5" value="No" style="edgeStyle=orthogonalEdgeStyle;rounded=0;html=1;jettySize=auto;orthogonalLoop=1;fontSize=11;endArrow=block;endFill=0;endSize=8;strokeWidth=1;shadow=0;labelBackgroundColor=none;" parent="WIyWlLk6GJQsqaUBKTNV-1" source="WIyWlLk6GJQsqaUBKTNV-6" target="WIyWlLk6GJQsqaUBKTNV-7" edge="1">
          <mxGeometry y="10" relative="1" as="geometry">
            <mxPoint as="offset" />
          </mxGeometry>
        </mxCell>
        <mxCell id="WIyWlLk6GJQsqaUBKTNV-6" value="Check Frame Captured?" style="rhombus;whiteSpace=wrap;html=1;shadow=0;fontFamily=Helvetica;fontSize=12;align=center;strokeWidth=1;spacing=6;spacingTop=-4;" parent="WIyWlLk6GJQsqaUBKTNV-1" vertex="1">
          <mxGeometry x="232.5" y="170" width="100" height="80" as="geometry" />
        </mxCell>
        <mxCell id="WIyWlLk6GJQsqaUBKTNV-7" value="self.get_logger().warn(&quot;Failed to capture frame&quot;)" style="rounded=1;whiteSpace=wrap;html=1;fontSize=12;glass=0;strokeWidth=1;shadow=0;" parent="WIyWlLk6GJQsqaUBKTNV-1" vertex="1">
          <mxGeometry x="382.5" y="190" width="180" height="40" as="geometry" />
        </mxCell>
        <mxCell id="WIyWlLk6GJQsqaUBKTNV-11" value="&lt;div&gt;shape_frame = self.detect_shapes(frame.copy())&lt;/div&gt;" style="rounded=1;whiteSpace=wrap;html=1;fontSize=12;glass=0;strokeWidth=1;shadow=0;" parent="WIyWlLk6GJQsqaUBKTNV-1" vertex="1">
          <mxGeometry x="30" y="430" width="180" height="40" as="geometry" />
        </mxCell>
        <mxCell id="WIyWlLk6GJQsqaUBKTNV-12" value="canny_frame = self.detect_canny(frame.copy())" style="rounded=1;whiteSpace=wrap;html=1;fontSize=12;glass=0;strokeWidth=1;shadow=0;" parent="WIyWlLk6GJQsqaUBKTNV-1" vertex="1">
          <mxGeometry x="260" y="530" width="186" height="40" as="geometry" />
        </mxCell>
        <mxCell id="q9l71AFZMNqnJ_aVeA2Z-1" value="frame = self.cap.read()" style="rounded=1;whiteSpace=wrap;html=1;fontSize=12;glass=0;strokeWidth=1;shadow=0;" vertex="1" parent="WIyWlLk6GJQsqaUBKTNV-1">
          <mxGeometry x="222.5" y="300" width="120" height="40" as="geometry" />
        </mxCell>
        <mxCell id="q9l71AFZMNqnJ_aVeA2Z-5" value="" style="rounded=0;whiteSpace=wrap;html=1;fillStyle=solid;fillColor=#000000;" vertex="1" parent="WIyWlLk6GJQsqaUBKTNV-1">
          <mxGeometry x="217.5" y="370" width="130" height="10" as="geometry" />
        </mxCell>
        <mxCell id="q9l71AFZMNqnJ_aVeA2Z-6" value="" style="rounded=0;html=1;jettySize=auto;orthogonalLoop=1;fontSize=11;endArrow=block;endFill=0;endSize=8;strokeWidth=1;shadow=0;labelBackgroundColor=none;edgeStyle=orthogonalEdgeStyle;entryX=0.5;entryY=0;entryDx=0;entryDy=0;exitX=0.5;exitY=1;exitDx=0;exitDy=0;" edge="1" parent="WIyWlLk6GJQsqaUBKTNV-1" source="q9l71AFZMNqnJ_aVeA2Z-1" target="q9l71AFZMNqnJ_aVeA2Z-5">
          <mxGeometry y="20" relative="1" as="geometry">
            <mxPoint as="offset" />
            <mxPoint x="292.5" y="260" as="sourcePoint" />
            <mxPoint x="292.5" y="310" as="targetPoint" />
          </mxGeometry>
        </mxCell>
        <mxCell id="q9l71AFZMNqnJ_aVeA2Z-8" value="color_frame = self.detect_colors(frame.copy())" style="rounded=1;whiteSpace=wrap;html=1;fontSize=12;glass=0;strokeWidth=1;shadow=0;" vertex="1" parent="WIyWlLk6GJQsqaUBKTNV-1">
          <mxGeometry x="140" y="480" width="180" height="40" as="geometry" />
        </mxCell>
        <mxCell id="q9l71AFZMNqnJ_aVeA2Z-9" value="sobel_frame = self.detect_sobel(frame.copy())" style="rounded=1;whiteSpace=wrap;html=1;fontSize=12;glass=0;strokeWidth=1;shadow=0;" vertex="1" parent="WIyWlLk6GJQsqaUBKTNV-1">
          <mxGeometry x="371" y="430" width="191.5" height="40" as="geometry" />
        </mxCell>
        <mxCell id="q9l71AFZMNqnJ_aVeA2Z-10" value="" style="rounded=0;html=1;jettySize=auto;orthogonalLoop=1;fontSize=11;endArrow=block;endFill=0;endSize=8;strokeWidth=1;shadow=0;labelBackgroundColor=none;edgeStyle=orthogonalEdgeStyle;entryX=0.5;entryY=0;entryDx=0;entryDy=0;exitX=0.375;exitY=0.904;exitDx=0;exitDy=0;exitPerimeter=0;" edge="1" parent="WIyWlLk6GJQsqaUBKTNV-1" source="q9l71AFZMNqnJ_aVeA2Z-5" target="q9l71AFZMNqnJ_aVeA2Z-8">
          <mxGeometry y="20" relative="1" as="geometry">
            <mxPoint as="offset" />
            <mxPoint x="293" y="350" as="sourcePoint" />
            <mxPoint x="293" y="380" as="targetPoint" />
          </mxGeometry>
        </mxCell>
        <mxCell id="q9l71AFZMNqnJ_aVeA2Z-11" value="" style="rounded=0;html=1;jettySize=auto;orthogonalLoop=1;fontSize=11;endArrow=block;endFill=0;endSize=8;strokeWidth=1;shadow=0;labelBackgroundColor=none;edgeStyle=orthogonalEdgeStyle;exitX=0.64;exitY=0.904;exitDx=0;exitDy=0;exitPerimeter=0;" edge="1" parent="WIyWlLk6GJQsqaUBKTNV-1" source="q9l71AFZMNqnJ_aVeA2Z-5" target="WIyWlLk6GJQsqaUBKTNV-12">
          <mxGeometry y="20" relative="1" as="geometry">
            <mxPoint as="offset" />
            <mxPoint x="262" y="391" as="sourcePoint" />
            <mxPoint x="230" y="440" as="targetPoint" />
          </mxGeometry>
        </mxCell>
        <mxCell id="q9l71AFZMNqnJ_aVeA2Z-12" value="" style="rounded=0;html=1;jettySize=auto;orthogonalLoop=1;fontSize=11;endArrow=block;endFill=0;endSize=8;strokeWidth=1;shadow=0;labelBackgroundColor=none;edgeStyle=orthogonalEdgeStyle;exitX=0.877;exitY=0.952;exitDx=0;exitDy=0;exitPerimeter=0;" edge="1" parent="WIyWlLk6GJQsqaUBKTNV-1" source="q9l71AFZMNqnJ_aVeA2Z-5" target="q9l71AFZMNqnJ_aVeA2Z-9">
          <mxGeometry y="20" relative="1" as="geometry">
            <mxPoint as="offset" />
            <mxPoint x="293" y="390" as="sourcePoint" />
            <mxPoint x="358" y="440" as="targetPoint" />
          </mxGeometry>
        </mxCell>
        <mxCell id="q9l71AFZMNqnJ_aVeA2Z-13" value="" style="rounded=0;html=1;jettySize=auto;orthogonalLoop=1;fontSize=11;endArrow=block;endFill=0;endSize=8;strokeWidth=1;shadow=0;labelBackgroundColor=none;edgeStyle=orthogonalEdgeStyle;entryX=0.5;entryY=0;entryDx=0;entryDy=0;exitX=0.143;exitY=0.933;exitDx=0;exitDy=0;exitPerimeter=0;" edge="1" parent="WIyWlLk6GJQsqaUBKTNV-1" source="q9l71AFZMNqnJ_aVeA2Z-5" target="WIyWlLk6GJQsqaUBKTNV-11">
          <mxGeometry y="20" relative="1" as="geometry">
            <mxPoint as="offset" />
            <mxPoint x="262" y="391" as="sourcePoint" />
            <mxPoint x="230" y="440" as="targetPoint" />
          </mxGeometry>
        </mxCell>
        <mxCell id="q9l71AFZMNqnJ_aVeA2Z-15" value="gray_frame = cv2.cvtColor(canny_frame, cv2.COLOR_BGR2GRAY)" style="rounded=1;whiteSpace=wrap;html=1;fontSize=12;glass=0;strokeWidth=1;shadow=0;" vertex="1" parent="WIyWlLk6GJQsqaUBKTNV-1">
          <mxGeometry x="243" y="600" width="220" height="40" as="geometry" />
        </mxCell>
        <mxCell id="q9l71AFZMNqnJ_aVeA2Z-16" value="" style="rounded=0;html=1;jettySize=auto;orthogonalLoop=1;fontSize=11;endArrow=block;endFill=0;endSize=8;strokeWidth=1;shadow=0;labelBackgroundColor=none;edgeStyle=orthogonalEdgeStyle;exitX=0.5;exitY=1;exitDx=0;exitDy=0;" edge="1" parent="WIyWlLk6GJQsqaUBKTNV-1" source="WIyWlLk6GJQsqaUBKTNV-12" target="q9l71AFZMNqnJ_aVeA2Z-15">
          <mxGeometry y="20" relative="1" as="geometry">
            <mxPoint as="offset" />
            <mxPoint x="311" y="389" as="sourcePoint" />
            <mxPoint x="363" y="540" as="targetPoint" />
          </mxGeometry>
        </mxCell>
        <mxCell id="q9l71AFZMNqnJ_aVeA2Z-17" value="" style="rounded=0;whiteSpace=wrap;html=1;fillStyle=solid;fillColor=#000000;" vertex="1" parent="WIyWlLk6GJQsqaUBKTNV-1">
          <mxGeometry x="217.5" y="680" width="130" height="10" as="geometry" />
        </mxCell>
        <mxCell id="q9l71AFZMNqnJ_aVeA2Z-18" value="" style="rounded=0;html=1;jettySize=auto;orthogonalLoop=1;fontSize=11;endArrow=block;endFill=0;endSize=8;strokeWidth=1;shadow=0;labelBackgroundColor=none;edgeStyle=orthogonalEdgeStyle;exitX=0.5;exitY=1;exitDx=0;exitDy=0;entryX=0.651;entryY=0.087;entryDx=0;entryDy=0;entryPerimeter=0;" edge="1" parent="WIyWlLk6GJQsqaUBKTNV-1" source="q9l71AFZMNqnJ_aVeA2Z-15" target="q9l71AFZMNqnJ_aVeA2Z-17">
          <mxGeometry y="20" relative="1" as="geometry">
            <mxPoint as="offset" />
            <mxPoint x="363" y="580" as="sourcePoint" />
            <mxPoint x="363" y="610" as="targetPoint" />
          </mxGeometry>
        </mxCell>
        <mxCell id="q9l71AFZMNqnJ_aVeA2Z-19" value="" style="rounded=0;html=1;jettySize=auto;orthogonalLoop=1;fontSize=11;endArrow=block;endFill=0;endSize=8;strokeWidth=1;shadow=0;labelBackgroundColor=none;edgeStyle=orthogonalEdgeStyle;exitX=0.5;exitY=1;exitDx=0;exitDy=0;entryX=0.877;entryY=0.178;entryDx=0;entryDy=0;entryPerimeter=0;" edge="1" parent="WIyWlLk6GJQsqaUBKTNV-1" source="q9l71AFZMNqnJ_aVeA2Z-9" target="q9l71AFZMNqnJ_aVeA2Z-17">
          <mxGeometry y="20" relative="1" as="geometry">
            <mxPoint as="offset" />
            <mxPoint x="363" y="650" as="sourcePoint" />
            <mxPoint x="313" y="689" as="targetPoint" />
            <Array as="points">
              <mxPoint x="467" y="670" />
              <mxPoint x="332" y="670" />
            </Array>
          </mxGeometry>
        </mxCell>
        <mxCell id="q9l71AFZMNqnJ_aVeA2Z-20" value="" style="rounded=0;html=1;jettySize=auto;orthogonalLoop=1;fontSize=11;endArrow=block;endFill=0;endSize=8;strokeWidth=1;shadow=0;labelBackgroundColor=none;edgeStyle=orthogonalEdgeStyle;exitX=0.5;exitY=1;exitDx=0;exitDy=0;entryX=0.404;entryY=0;entryDx=0;entryDy=0;entryPerimeter=0;" edge="1" parent="WIyWlLk6GJQsqaUBKTNV-1" source="q9l71AFZMNqnJ_aVeA2Z-8" target="q9l71AFZMNqnJ_aVeA2Z-17">
          <mxGeometry y="20" relative="1" as="geometry">
            <mxPoint as="offset" />
            <mxPoint x="363" y="650" as="sourcePoint" />
            <mxPoint x="313" y="689" as="targetPoint" />
            <Array as="points">
              <mxPoint x="230" y="660" />
              <mxPoint x="270" y="660" />
            </Array>
          </mxGeometry>
        </mxCell>
        <mxCell id="q9l71AFZMNqnJ_aVeA2Z-21" value="" style="rounded=0;html=1;jettySize=auto;orthogonalLoop=1;fontSize=11;endArrow=block;endFill=0;endSize=8;strokeWidth=1;shadow=0;labelBackgroundColor=none;edgeStyle=orthogonalEdgeStyle;exitX=0.455;exitY=1.089;exitDx=0;exitDy=0;entryX=0.248;entryY=0.254;entryDx=0;entryDy=0;entryPerimeter=0;exitPerimeter=0;" edge="1" parent="WIyWlLk6GJQsqaUBKTNV-1" source="WIyWlLk6GJQsqaUBKTNV-11" target="q9l71AFZMNqnJ_aVeA2Z-17">
          <mxGeometry y="20" relative="1" as="geometry">
            <mxPoint as="offset" />
            <mxPoint x="240" y="530" as="sourcePoint" />
            <mxPoint x="280" y="690" as="targetPoint" />
            <Array as="points">
              <mxPoint x="112" y="670" />
              <mxPoint x="250" y="670" />
              <mxPoint x="250" y="682" />
            </Array>
          </mxGeometry>
        </mxCell>
        <mxCell id="q9l71AFZMNqnJ_aVeA2Z-22" value="cv2.imshow()" style="rounded=1;whiteSpace=wrap;html=1;fontSize=12;glass=0;strokeWidth=1;shadow=0;" vertex="1" parent="WIyWlLk6GJQsqaUBKTNV-1">
          <mxGeometry x="222.5" y="720" width="120" height="40" as="geometry" />
        </mxCell>
        <mxCell id="q9l71AFZMNqnJ_aVeA2Z-23" value="" style="rounded=0;html=1;jettySize=auto;orthogonalLoop=1;fontSize=11;endArrow=block;endFill=0;endSize=8;strokeWidth=1;shadow=0;labelBackgroundColor=none;edgeStyle=orthogonalEdgeStyle;exitX=0.5;exitY=1;exitDx=0;exitDy=0;" edge="1" parent="WIyWlLk6GJQsqaUBKTNV-1" source="q9l71AFZMNqnJ_aVeA2Z-17" target="q9l71AFZMNqnJ_aVeA2Z-22">
          <mxGeometry y="20" relative="1" as="geometry">
            <mxPoint as="offset" />
            <mxPoint x="363" y="650" as="sourcePoint" />
            <mxPoint x="312" y="691" as="targetPoint" />
          </mxGeometry>
        </mxCell>
        <mxCell id="q9l71AFZMNqnJ_aVeA2Z-24" value="self.shape_pub.publish(self.br.cv2_to_imgmsg(frame, &quot;bgr8&quot;)" style="rounded=1;whiteSpace=wrap;html=1;fontSize=12;glass=0;strokeWidth=1;shadow=0;" vertex="1" parent="WIyWlLk6GJQsqaUBKTNV-1">
          <mxGeometry x="138.75" y="780" width="287.5" height="40" as="geometry" />
        </mxCell>
        <mxCell id="q9l71AFZMNqnJ_aVeA2Z-25" value="" style="rounded=0;html=1;jettySize=auto;orthogonalLoop=1;fontSize=11;endArrow=block;endFill=0;endSize=8;strokeWidth=1;shadow=0;labelBackgroundColor=none;edgeStyle=orthogonalEdgeStyle;exitX=0.5;exitY=1;exitDx=0;exitDy=0;entryX=0.5;entryY=0;entryDx=0;entryDy=0;" edge="1" parent="WIyWlLk6GJQsqaUBKTNV-1" source="q9l71AFZMNqnJ_aVeA2Z-22" target="q9l71AFZMNqnJ_aVeA2Z-24">
          <mxGeometry y="20" relative="1" as="geometry">
            <mxPoint as="offset" />
            <mxPoint x="293" y="700" as="sourcePoint" />
            <mxPoint x="292" y="730" as="targetPoint" />
          </mxGeometry>
        </mxCell>
      </root>
    </mxGraphModel>
  </diagram>
</mxfile>
